<svg xmlns="http://www.w3.org/2000/svg" viewBox="0 0 1024 1024" width="1024" height="1024">
    <ellipse cx="512" cy="798.4" rx="258.4" ry="32.64" fill="rgba(40,20,10,0.12)"/>
    <line x1="512" y1="308.8" x2="512" y2="219.04000000000002" stroke="oklch(22% 0.025 260)" stroke-width="8" stroke-linecap="round"/>
    <circle cx="512" cy="200" r="27.200000000000003" fill="oklch(85% 0.15 95)" stroke="oklch(22% 0.025 260)" stroke-width="6"/>
    <rect x="280.8" y="308.8" width="462.4" height="435.20000000000005" rx="81.6"
      fill="oklch(55% 0.14 305)" stroke="oklch(22% 0.025 260)" stroke-width="8"/>
    <rect x="343.36" y="417.6" width="337.28" height="149.60000000000002" rx="48.96"
      fill="oklch(95% 0.04 60)" stroke="oklch(22% 0.025 260)" stroke-width="6"/>
    <rect x="430.4" y="485.6" width="43.52" height="59.84" rx="16.32" fill="oklch(22% 0.025 260)"/>
    <rect x="550.08" y="485.6" width="43.52" height="59.84" rx="16.32" fill="oklch(22% 0.025 260)"/>
    <path d="M463.04 594.4 Q512 627.04 560.96 594.4" fill="none" stroke="oklch(22% 0.025 260)" stroke-width="6" stroke-linecap="round"/>
    <rect x="403.2" y="752.16" width="217.60000000000002" height="54.400000000000006" rx="21.76"
      fill="oklch(55% 0.14 305)" stroke="oklch(22% 0.025 260)" stroke-width="6"/>
    <rect x="185.60000000000002" y="540" width="97.92" height="48.96" rx="21.76"
      fill="oklch(55% 0.14 305)" stroke="oklch(22% 0.025 260)" stroke-width="6"/>
    <circle cx="180.16000000000003" cy="564.48" r="35.36" fill="oklch(66% 0.17 35)" stroke="oklch(22% 0.025 260)" stroke-width="6"/>
    <g transform="translate(743.2, 349.6)">
      <path d="M0 -16 l5 12 12 5 -12 5 -5 12 -5 -12 -12 -5 12 -5 z"
        fill="oklch(85% 0.15 95)" stroke="oklch(22% 0.025 260)" stroke-width="3" stroke-linejoin="round"/>
    </g>
  </svg>