<svg xmlns="http://www.w3.org/2000/svg" viewBox="0 0 1024 1024" width="1024" height="1024">
    <ellipse cx="512" cy="844" rx="304" ry="38.4" fill="rgba(40,20,10,0.12)"/>
    <circle cx="512" cy="540" r="320" fill="oklch(95% 0.04 60)" stroke="oklch(22% 0.025 260)" stroke-width="8"/>
    <path d="M464 204 Q512 117.59999999999997 560 204"
      fill="oklch(95% 0.04 60)" stroke="oklch(22% 0.025 260)" stroke-width="8" stroke-linejoin="round"/>
    
    <circle cx="336" cy="597.6" r="41.6" fill="oklch(82% 0.12 30)" opacity="0.7"/>
    <circle cx="688" cy="597.6" r="41.6" fill="oklch(82% 0.12 30)" opacity="0.7"/>
  
    <ellipse cx="416" cy="501.6" rx="27.200000000000003" ry="41.6" fill="oklch(22% 0.025 260)"/>
    <ellipse cx="608" cy="501.6" rx="27.200000000000003" ry="41.6" fill="oklch(22% 0.025 260)"/>
    <circle cx="425.6" cy="488.8" r="9.6" fill="#fff"/>
    <circle cx="617.6" cy="488.8" r="9.6" fill="#fff"/>
    <path d="M454.4 642.4 Q512 668 569.6 636" fill="none" stroke="oklch(22% 0.025 260)" stroke-width="6" stroke-linecap="round"/>
    <circle cx="166.39999999999998" cy="556" r="51.2" fill="oklch(66% 0.17 35)" stroke="oklch(22% 0.025 260)" stroke-width="6"/>
    <g transform="translate(784, 316)">
      <path d="M0 -16 l5 12 12 5 -12 5 -5 12 -5 -12 -12 -5 12 -5 z"
        fill="oklch(85% 0.15 95)" stroke="oklch(22% 0.025 260)" stroke-width="3" stroke-linejoin="round"/>
    </g><g stroke="oklch(22% 0.025 260)" stroke-width="5" fill="none">
      <circle cx="409.6" cy="524" r="70.4" fill="rgba(255,255,255,0.4)"/>
      <circle cx="614.4" cy="524" r="70.4" fill="rgba(255,255,255,0.4)"/>
      <line x1="480" y1="524" x2="544" y2="524"/>
    </g>
  </svg>